# xmcd CD database file
#
# Track frame offsets:
#	183
#	14683
#	29358
#	45608
#	59458
#	74283
#	88020
#	102583
#	116683
#	130783
#	142183
#	155308
#	174858
#	190383
#	204995
#	219733
#	229333
#	241858
#
# Disc length: 3360 seconds
#
# Revision: 0
# Processed by: cddbd v1.5.1PL0 Copyright (c) Steve Scherf et al.
# Submitted via: CDex 1.51
#
DISCID=070d1e12
DTITLE=Various Artist - Big band's greatest hits
DYEAR=1996
DGENRE=Jazz
TTITLE0=Benny Goodman - Stompin' at The Savoy
TTITLE1=Artie Shaw - Begin the beguine
TTITLE2=Glenn Miller - In the mood
TTITLE3=Count Basie - One o'clock jump
TTITLE4=Woody Herman - At the woodchoppers ball
TTITLE5=Charlie Barnet - Skyliner
TTITLE6=Lionel Hampton - Flying home
TTITLE7=Gene Krupa - Let me off uptown
TTITLE8=Glen Gray - Casa Loma stomp
TTITLE9=Les Brown and his orchestra - Just a gigolo
TTITLE10=Harry James and his orchestra - My baby just cares for me
TTITLE11=Louis Armstrong - Long long journey
TTITLE12=Stan Kenton and his orchestra - I surrender dear
TTITLE13=Glen Gray and his orchestra - Wrap your trouble in dreams
TTITLE14=Cab Calloway - Minnie the moocher
TTITLE15=Eddy Howard - Rose room
TTITLE16=Eskin Hawkins - Rockin' roller's jubilee
TTITLE17=Dick Jurgens and his orchestra - King porter stomp
EXTD=YEAR: 1996
EXTT0=
EXTT1=
EXTT2=
EXTT3=
EXTT4=
EXTT5=
EXTT6=
EXTT7=
EXTT8=
EXTT9=
EXTT10=
EXTT11=
EXTT12=
EXTT13=
EXTT14=
EXTT15=
EXTT16=
EXTT17=
PLAYORDER=
